<svg width="171" height="35" viewBox="0 0 171 35" fill="none" xmlns="http://www.w3.org/2000/svg">
<path d="M44.0547 25V9.92188H48.791C50.5618 9.92188 51.8737 10.3125 52.7266 11.0938C53.5924 11.8945 54.0254 12.9297 54.0254 14.1992C54.0254 16.0872 53.0879 17.1094 51.2129 17.2656C52.2806 17.4219 53.0618 17.7734 53.5566 18.3203C54.0579 18.8672 54.3086 19.6549 54.3086 20.6836C54.3086 21.9792 53.8887 23.0208 53.0488 23.8086C52.2155 24.6029 51.1185 25 49.7578 25H44.0547ZM48.127 21.7285C48.2051 21.735 48.2734 21.7415 48.332 21.748C48.3906 21.748 48.4395 21.748 48.4785 21.748C48.9863 21.748 49.39 21.6146 49.6895 21.3477C49.9954 21.0807 50.1484 20.7227 50.1484 20.2734C50.1484 19.8242 49.9954 19.4727 49.6895 19.2188C49.39 18.9648 48.9766 18.8379 48.4492 18.8379H48.127V21.7285ZM48.127 15.7812H48.4004C48.8887 15.7812 49.2728 15.6673 49.5527 15.4395C49.8392 15.2116 49.9824 14.8926 49.9824 14.4824C49.9824 13.61 49.5039 13.1738 48.5469 13.1738C48.5013 13.1738 48.4427 13.1771 48.3711 13.1836C48.306 13.1836 48.2246 13.1868 48.127 13.1934V15.7812ZM68.9723 17.5098C68.9723 19.8079 68.4482 21.6764 67.4 23.1152C66.3583 24.5475 65.0009 25.2637 63.3277 25.2637C61.8434 25.2637 60.5706 24.7135 59.5094 23.6133C58.1747 22.2201 57.5074 20.1302 57.5074 17.3438C57.5074 14.6745 58.204 12.6335 59.5973 11.2207C60.6324 10.1725 61.8596 9.64844 63.2789 9.64844C65.0172 9.64844 66.4007 10.3581 67.4293 11.7773C68.4579 13.1966 68.9723 15.1074 68.9723 17.5098ZM64.7437 17.5391C64.7437 14.8112 64.262 13.4473 63.2984 13.4473C62.8167 13.4473 62.4326 13.8053 62.1461 14.5215C61.8661 15.1855 61.7262 16.1621 61.7262 17.4512C61.7262 18.7207 61.8564 19.707 62.1168 20.4102C62.3837 21.1068 62.7516 21.4551 63.2203 21.4551C63.7021 21.4551 64.0732 21.11 64.3336 20.4199C64.607 19.7298 64.7437 18.7695 64.7437 17.5391ZM83.343 25H78.9387L76.927 19.6289C76.9074 19.5378 76.8716 19.4173 76.8195 19.2676C76.774 19.1178 76.7154 18.9388 76.6437 18.7305L76.673 19.7266V25H72.6203V9.92188H76.7902C78.6262 9.92188 79.9999 10.2832 80.9113 11.0059C82.0702 11.9303 82.6496 13.2454 82.6496 14.9512C82.6496 16.7741 81.8716 18.0339 80.3156 18.7305L83.343 25ZM76.6926 16.9043H76.966C77.4348 16.9043 77.8254 16.7253 78.1379 16.3672C78.4504 16.0091 78.6066 15.5534 78.6066 15C78.6066 13.8737 78.0174 13.3105 76.8391 13.3105H76.6926V16.9043ZM86.5906 25V9.92188H90.1063C92.118 9.92188 93.6837 10.4622 94.8035 11.543C96.2749 12.9557 97.0105 14.9316 97.0105 17.4707C97.0105 19.9707 96.3888 21.901 95.1453 23.2617C94.0841 24.4206 92.5021 25 90.3992 25H86.5906ZM90.6629 21.3574C92.1212 21.2858 92.8504 20.0293 92.8504 17.5879C92.8504 16.3835 92.6648 15.4329 92.2938 14.7363C91.9227 14.0332 91.4214 13.6816 90.7898 13.6816H90.6629V21.3574ZM100.659 25V9.92188H108.227V13.4668H104.731V15.6641H107.866V19.0723H104.731V21.377H108.227V25H100.659ZM122.598 25H118.193L116.182 19.6289C116.162 19.5378 116.126 19.4173 116.074 19.2676C116.029 19.1178 115.97 18.9388 115.898 18.7305L115.928 19.7266V25H111.875V9.92188H116.045C117.881 9.92188 119.255 10.2832 120.166 11.0059C121.325 11.9303 121.904 13.2454 121.904 14.9512C121.904 16.7741 121.126 18.0339 119.57 18.7305L122.598 25ZM115.947 16.9043H116.221C116.689 16.9043 117.08 16.7253 117.393 16.3672C117.705 16.0091 117.861 15.5534 117.861 15C117.861 13.8737 117.272 13.3105 116.094 13.3105H115.947V16.9043ZM132.974 25H125.845V9.92188H129.918V21.377H132.974V25ZM140.157 25H136.085V9.92188H140.157V25ZM144.177 25V9.92188H148.063L150.104 15.2148C150.215 15.5273 150.339 15.8854 150.475 16.2891C150.619 16.6927 150.775 17.1582 150.944 17.6855L151.364 19.0137C151.214 17.7051 151.1 16.5853 151.022 15.6543C150.944 14.7233 150.905 13.9421 150.905 13.3105V9.92188H154.792V25H150.905L148.854 19.4531C148.639 18.8607 148.444 18.3073 148.268 17.793C148.099 17.2721 147.949 16.7773 147.819 16.3086C147.904 17.3698 147.966 18.2943 148.005 19.082C148.044 19.8698 148.063 20.5599 148.063 21.1523V25H144.177ZM158.811 25V9.92188H166.379V13.4668H162.883V15.6641H166.018V19.0723H162.883V21.377H166.379V25H158.811Z" fill="#23354E"/>
<path d="M29.1927 4.26845H24.6617C24.8642 4.12302 25.0593 3.96435 25.2342 3.77405C26.2076 2.72333 26.4649 1.26614 26.0286 0L22.0754 4.26848H21.452L21.4509 4.27064H20.3413C20.5457 4.12521 20.7411 3.96438 20.9179 3.77435C21.8913 2.72363 22.1476 1.26644 21.7121 0.000301062L17.7561 4.27065H11.5493C11.1171 4.25335 7.52198 4.22389 5.77872 7.40004C5.49083 7.92282 5.68222 8.57781 6.205 8.86568C6.36988 8.95516 6.54775 8.99895 6.72372 8.99895C7.10513 8.99895 7.47439 8.79648 7.67064 8.43859C8.82592 6.33425 11.3644 6.42289 11.4671 6.42801H12.2727C11.7653 7.5671 10.7308 7.53762 10.4086 7.49382C9.81876 7.40137 9.26762 7.80305 9.17489 8.39181C9.08245 8.98081 9.48521 9.53277 10.0729 9.62549C10.2335 9.6509 10.4156 9.66631 10.614 9.66631C11.9088 9.66631 13.8645 9.03162 14.5195 6.51858L14.5409 6.42803H16.9166L16.7712 7.03622C16.0359 9.85526 13.5869 9.59417 13.3175 9.55549C12.7266 9.46278 12.1765 9.86581 12.0838 10.4545C11.9911 11.0424 12.393 11.5955 12.9828 11.6882C13.1934 11.7217 13.4323 11.7412 13.6926 11.7412C15.4064 11.7412 17.9946 10.897 18.8653 7.56004L19.1369 6.42904H20.934L20.3196 8.98782C19.7316 11.569 18.0414 12.8565 16.4731 13.1992L3.53767 16.0955C-0.115564 16.8562 0.000413387 20.8503 0.000413387 20.8503V28.7604L3.68098 34.7548H6.56112L2.78464 28.6191L5.19796 24.7198C5.57423 25.4724 5.9932 26.9491 4.86143 28.7604L8.54303 34.7548H11.4223L7.64614 28.6191L10.393 24.1817L25.1843 21.2323L22.4525 29.465L25.2616 28.8354L28.7875 18.185L28.8629 17.999L28.8486 18.0012L28.8497 17.9982L28.3575 18.0979L21.8265 19.3754L23.2951 13.7025C24.4285 8.86281 27.8706 7.66075 29.0035 7.57128C29.9636 7.49587 30.891 7.28745 30.891 5.96648C30.891 4.26785 29.1927 4.26785 29.1927 4.26785L29.1927 4.26845Z" fill="#23354E"/>
<path d="M20.5159 23.4318L18.1931 30.4333L21.0022 29.8038L23.295 22.8687L20.5159 23.4318Z" fill="#23354E"/>
</svg>
